<?xml version="1.0" encoding="UTF-8"?>
<svg version="1.1" xmlns="http://www.w3.org/2000/svg" width="436" height="193">
<path d="M0 0 C1.11882096 -0.00297112 2.23764193 -0.00594224 3.39036655 -0.0090034 C7.11767396 -0.01763473 10.84494904 -0.01919392 14.57226562 -0.02069092 C17.25386198 -0.02532306 19.93545549 -0.03032831 22.61705017 -0.03573608 C29.88809421 -0.04926489 37.1591327 -0.05533561 44.43018723 -0.05974674 C48.9789415 -0.06251847 53.52769368 -0.06675748 58.07644653 -0.07125092 C70.69558071 -0.08343655 83.31471322 -0.09373719 95.93385315 -0.09712601 C96.74006692 -0.09734557 97.54628068 -0.09756514 98.37692517 -0.09779136 C99.1849566 -0.09800964 99.99298803 -0.09822791 100.82550526 -0.09845281 C102.46260897 -0.09889626 104.09971269 -0.09934282 105.73681641 -0.09979248 C106.54885887 -0.10001391 107.36090132 -0.10023534 108.19755113 -0.10046348 C121.34092896 -0.10440736 134.4842512 -0.12185202 147.62760758 -0.145152 C161.15426172 -0.16893593 174.68088804 -0.18133105 188.2075634 -0.18249393 C195.7891226 -0.18340675 203.37060935 -0.18905932 210.95214844 -0.20731354 C217.41056401 -0.22280996 223.86888473 -0.22777933 230.32731539 -0.21957543 C233.6146787 -0.21570231 236.90181419 -0.21810741 240.1891613 -0.23063278 C258.75922709 -0.29719342 276.48826062 -0.21230917 293.47851562 8.14044189 C294.48398437 8.59419189 295.48945313 9.04794189 296.52539062 9.51544189 C303.68092849 12.8571144 309.59870333 16.88159988 315.47851562 22.14044189 C316.61933594 23.15751221 316.61933594 23.15751221 317.78320312 24.19512939 C327.99344831 33.84010149 336.41203087 46.12341506 340.16601562 59.70294189 C340.37806641 60.43190674 340.59011719 61.16087158 340.80859375 61.91192627 C342.94356235 69.39441874 343.65459264 76.42807521 343.71679688 84.19122314 C343.72486862 85.16343307 343.73294037 86.13564301 343.74125671 87.13731384 C343.75505737 89.19571169 343.76579741 91.25413203 343.77368164 93.31256104 C343.78512931 95.38652406 343.80546461 97.46045935 343.83520508 99.53424072 C344.24748146 128.34061366 336.92094595 150.13729542 316.79101562 171.14044189 C310.63773727 176.873 304.07591557 181.19019486 296.47851562 184.76544189 C295.74246094 185.13411377 295.00640625 185.50278564 294.24804688 185.88262939 C277.99762001 193.61315072 261.99921739 193.7315189 244.33854342 193.66334057 C240.82379951 193.65418997 237.3091313 193.66830873 233.79440308 193.67926025 C226.9304085 193.69694464 220.06658996 193.69325087 213.2025888 193.68160969 C207.61861601 193.67253561 202.03469217 193.67136844 196.45071411 193.67570496 C195.65264676 193.67631789 194.8545794 193.67693082 194.03232819 193.67756233 C192.41051442 193.67884137 190.78870067 193.68013823 189.16688693 193.68145269 C173.99823487 193.69282895 158.82967989 193.67979135 143.66104376 193.65825123 C130.67664989 193.64038293 117.69239911 193.64348787 104.70800781 193.66192627 C89.58956902 193.6833854 74.47121507 193.69173059 59.35276318 193.67947721 C57.73728118 193.67820317 56.12179916 193.67694568 54.50631714 193.67570496 C53.31438597 193.6747793 53.31438597 193.6747793 52.09837538 193.67383495 C46.52821934 193.67039714 40.9581176 193.67617634 35.38796997 193.68562317 C28.58960723 193.6969008 21.79142896 193.69368311 14.99308705 193.67250019 C11.53173514 193.66206654 8.07068955 193.6577344 4.60934067 193.6710968 C-12.83652928 193.72217379 -28.71250493 193.33261668 -44.52148438 185.14044189 C-45.50246094 184.68282471 -46.4834375 184.22520752 -47.49414062 183.75372314 C-66.87370623 174.21408001 -79.82711397 157.19060752 -88.31054688 137.71856689 C-92.59394394 125.06181943 -93.02017043 113.32612916 -92.9675293 100.04864502 C-92.95901998 96.77912354 -92.98785912 93.51135429 -93.01953125 90.24200439 C-93.10962468 63.26382855 -85.0142227 42.92421867 -66.01953125 23.64190674 C-48.15399185 5.73560503 -24.60047357 -0.02072311 0 0 Z " fill="#040404" transform="translate(92.521484375,-0.14044189453125)"/>
<path d="M0 0 C5.94 0 11.88 0 18 0 C18.495 15.345 18.495 15.345 19 31 C21.31 28.36 23.62 25.72 26 23 C32.28473506 19.85763247 39.62720817 19.89808436 46.44921875 21.6171875 C54.28486818 25.09627742 59.04743886 32.15195242 62.2734375 39.82421875 C66.02918396 51.07126594 64.63565578 63.26025089 60 74 C56.21410882 80.9221324 50.92241467 84.53879267 44 88 C30.2718099 88.9860026 30.2718099 88.9860026 25 85 C22.84635131 82.75141088 20.93906666 80.44691745 19 78 C18.67 80.97 18.34 83.94 18 87 C12.06 87 6.12 87 0 87 C0 58.29 0 29.58 0 0 Z " fill="#FBFBFB" transform="translate(322,52)"/>
<path d="M0 0 C1.18867676 0.01027222 1.18867676 0.01027222 2.40136719 0.02075195 C11.47466066 0.26886434 18.78863471 2.7477772 25.1875 9.4375 C32.42512393 19.66760306 34.54112302 29.3191679 32.875 41.7734375 C30.98071725 50.33153634 26.71114544 58.28634214 19.3125 63.125 C10.72518701 68.46164997 0.98962625 68.54298593 -8.8125 67.4375 C-16.51265346 65.30015877 -22.76739667 60.19129768 -27.05859375 53.4921875 C-32.26299104 43.76968708 -33.46599834 32.87403209 -30.6875 22.1875 C-27.62118515 13.24646979 -20.97507887 6.10779942 -12.640625 1.796875 C-8.44391618 0.07966103 -4.49149854 -0.0594995 0 0 Z " fill="#FAFAFA" transform="translate(165.8125,72.5625)"/>
<path d="M0 0 C6.20236415 4.72240741 10.43359856 12.37173176 12.86328125 19.68359375 C12.86328125 21.33359375 12.86328125 22.98359375 12.86328125 24.68359375 C6.59328125 24.68359375 0.32328125 24.68359375 -6.13671875 24.68359375 C-7.12671875 22.37359375 -8.11671875 20.06359375 -9.13671875 17.68359375 C-12.78328524 13.36529132 -15.74595159 11.00707409 -21.4296875 10.46484375 C-28.36050924 10.21319515 -33.32644595 11.3961624 -38.82421875 15.87109375 C-46.09068047 24.70868233 -46.80105351 33.51069103 -46.13671875 44.68359375 C-44.91046451 51.83835274 -42.3271384 58.53142539 -36.38671875 63 C-31.16106715 66.02371373 -26.06178541 66.68300258 -20.13671875 65.68359375 C-15.35786574 64.25543078 -11.40107058 62.63225972 -8.62109375 58.34765625 C-7.35251555 55.63041069 -7.35251555 55.63041069 -6.13671875 51.68359375 C0.13328125 51.68359375 6.40328125 51.68359375 12.86328125 51.68359375 C11.44302798 61.62536667 7.96736288 69.47298914 -0.13671875 75.68359375 C-11.49114219 82.98876866 -24.13656844 84.68603639 -37.375 82.03515625 C-48.05703304 78.49966017 -56.11619297 71.26073849 -61.35546875 61.38671875 C-64.99091311 53.64841576 -65.3410695 46.37870571 -65.38671875 37.93359375 C-65.40734375 36.99515625 -65.42796875 36.05671875 -65.44921875 35.08984375 C-65.51351697 23.45186573 -62.04822978 13.03299449 -54.02734375 4.41796875 C-39.23831953 -9.35112277 -17.1758527 -10.58183247 0 0 Z " fill="#FBFBFB" transform="translate(117.13671875,57.31640625)"/>
<path d="M0 0 C6.04383908 3.72549622 10.01131755 7.22860774 12.046875 14.26171875 C12.44312741 18.06794935 12.39700316 21.84077651 12.33984375 25.6640625 C12.33559891 26.74176407 12.33135406 27.81946564 12.32698059 28.92982483 C12.31026219 32.35321621 12.27262183 35.77600695 12.234375 39.19921875 C12.21931936 41.52798626 12.2056325 43.85676304 12.19335938 46.18554688 C12.16038093 51.87783365 12.10864519 57.56967455 12.046875 63.26171875 C6.106875 63.26171875 0.166875 63.26171875 -5.953125 63.26171875 C-6.448125 59.79671875 -6.448125 59.79671875 -6.953125 56.26171875 C-7.41203125 56.67164063 -7.8709375 57.0815625 -8.34375 57.50390625 C-8.95734375 58.04273438 -9.5709375 58.5815625 -10.203125 59.13671875 C-10.80640625 59.67039063 -11.4096875 60.2040625 -12.03125 60.75390625 C-18.25290282 65.63512168 -25.40653583 64.90448817 -32.953125 64.26171875 C-38.38318685 62.76460781 -41.91689696 60.04961681 -44.953125 55.26171875 C-47.58088977 49.68247905 -47.61978543 44.32750567 -46.953125 38.26171875 C-43.77997128 31.6803629 -39.04385342 28.43452841 -32.2890625 25.96850586 C-28.12954175 24.70995521 -23.87853852 24.19242564 -19.578125 23.63671875 C-17.79908058 23.39747673 -16.02041059 23.1554284 -14.2421875 22.91015625 C-13.07743896 22.75812744 -13.07743896 22.75812744 -11.88916016 22.60302734 C-9.87916425 22.34354494 -9.87916425 22.34354494 -7.953125 21.26171875 C-7.45999678 16.49328526 -7.45999678 16.49328526 -9.390625 12.32421875 C-13.25584215 10.72156774 -16.83016267 10.70953629 -20.953125 11.26171875 C-24.58779579 12.88572059 -25.72721196 13.92284919 -27.953125 17.26171875 C-29.87109375 17.58984375 -29.87109375 17.58984375 -32.140625 17.51171875 C-32.93726563 17.4859375 -33.73390625 17.46015625 -34.5546875 17.43359375 C-37.72962495 17.2060738 -40.81526692 16.79582225 -43.953125 16.26171875 C-43.55224899 10.78307996 -41.77732646 7.11285121 -37.953125 3.26171875 C-27.25972093 -4.03606052 -11.88313383 -5.83912611 0 0 Z " fill="#F9F9F9" transform="translate(301.953125,75.73828125)"/>
<path d="M0 0 C6.27 0 12.54 0 19 0 C19 29.04 19 58.08 19 88 C12.73 88 6.46 88 0 88 C0 58.96 0 29.92 0 0 Z " fill="#F3F3F3" transform="translate(204,51)"/>
<path d="M0 0 C5.94 0 11.88 0 18 0 C18 28.71 18 57.42 18 87 C12.06 87 6.12 87 0 87 C0 58.29 0 29.58 0 0 Z " fill="#FCFCFC" transform="translate(231,52)"/>
<path d="M0 0 C3.80393798 1.35251128 4.92836669 2.90126219 7.3125 6.1875 C10.41423271 13.01131195 10.30770712 22.57931204 8.19921875 29.70703125 C6.63515478 32.96197518 4.70067604 35.62585406 2 38 C-1.7426567 39.24755223 -5.11932512 39.63207962 -9 39 C-13.52499415 36.26792806 -15.88277462 33.61842263 -17.53125 28.4375 C-19.08189957 20.37412221 -18.90395047 12.28737421 -15 5 C-10.46573906 -0.1820125 -6.55550341 -1.06830426 0 0 Z " fill="#020202" transform="translate(171,87)"/>
<path d="M0 0 C5.17310011 1.82580004 7.37163287 4.23000039 10 9 C12.47030625 16.81990985 11.60121421 25.69120661 8 33 C5.55117906 35.96826781 3.6933903 37.81717379 -0.20703125 38.23828125 C-4.36920888 38.35684403 -7.20780494 38.42138035 -10.9375 36.4375 C-15.41282077 31.14848455 -16.5387614 25.80152588 -16.4375 19 C-16.43065186 18.29520508 -16.42380371 17.59041016 -16.41674805 16.86425781 C-16.19643706 9.77139914 -14.51787148 6.65397264 -9.6875 1.5625 C-6.15426653 -0.4917055 -4.03633558 -0.49569033 0 0 Z " fill="#030303" transform="translate(356,87)"/>
<path d="M0 0 C0.86022974 10.74331367 0.86022974 10.74331367 -2.1875 14.5625 C-6.02945465 17.89219403 -8.43152122 18.80037543 -13.4375 19.4375 C-18.33250377 18.83635919 -19.80329483 17.75612857 -23 14 C-23.125 10.375 -23.125 10.375 -22 7 C-17.96649284 2.82243901 -12.30669955 1.73724648 -6.75 0.875 C-5.16445313 0.62363281 -5.16445313 0.62363281 -3.546875 0.3671875 C-1 0 -1 0 0 0 Z " fill="#090909" transform="translate(295,109)"/>
</svg>
