<?xml version="1.0" standalone="no"?>
<!DOCTYPE svg PUBLIC "-//W3C//DTD SVG 20010904//EN"
 "http://www.w3.org/TR/2001/REC-SVG-20010904/DTD/svg10.dtd">
<svg version="1.0" xmlns="http://www.w3.org/2000/svg"
 width="735.000000pt" height="752.000000pt" viewBox="0 0 735.000000 752.000000"
 preserveAspectRatio="xMidYMid meet">

<g transform="translate(0.000000,752.000000) scale(0.100000,-0.100000)"
fill="#000000" stroke="none">
<path d="M3485 6034 c-57 -4 -177 -22 -295 -46 -82 -16 -212 -56 -330 -100
-95 -36 -317 -145 -380 -188 -14 -9 -54 -36 -90 -61 -158 -106 -370 -303 -491
-454 -163 -205 -312 -482 -389 -725 -73 -229 -102 -410 -104 -648 -2 -296 4
-356 60 -587 62 -261 166 -501 314 -724 155 -234 387 -470 610 -620 36 -25 78
-53 93 -63 55 -38 274 -147 366 -182 161 -62 251 -86 491 -132 116 -22 544
-26 648 -5 34 6 79 14 100 17 20 2 52 9 72 14 19 5 44 11 55 13 56 10 197 55
319 102 68 26 295 141 345 174 14 10 55 37 91 62 224 151 462 396 628 647 23
35 42 66 42 69 0 3 16 31 35 63 94 155 211 478 246 680 18 104 38 325 38 420
0 95 -20 317 -38 420 -13 75 -54 227 -89 330 -142 412 -437 814 -790 1076
-152 112 -176 126 -352 216 -178 91 -464 186 -609 204 -24 3 -67 10 -95 15
-54 10 -400 19 -501 13z"/>
</g>
</svg>
